HIERARCHY
ROOT hip
{
  OFFSET 0 0 0
  CHANNELS 6 Xposition Yposition Zposition Zrotation Yrotation Xrotation
  JOINT abdomen
  {
    OFFSET 0 20.6881 -0.73152
    CHANNELS 3 Zrotation Xrotation Yrotation
    JOINT chest
    {
      OFFSET 0 11.7043 -0.48768
      CHANNELS 3 Zrotation Xrotation Yrotation
      JOINT neck
      {
        OFFSET 0 22.1894 -2.19456
        CHANNELS 3 Zrotation Xrotation Yrotation
        JOINT head
        {
          OFFSET -0.24384 7.07133 1.2192
          CHANNELS 3 Zrotation Xrotation Yrotation
          JOINT leftEye
          {
            OFFSET 4.14528 8.04674 8.04672
            CHANNELS 3 Zrotation Xrotation Yrotation
            End Site
            {
              OFFSET 1 0 0
            }
          }
          JOINT rightEye
          {
            OFFSET -3.6576 8.04674 8.04672
            CHANNELS 3 Zrotation Xrotation Yrotation
            End Site
            {
              OFFSET 1 0 0
            }
          }
        }
      }
      JOINT rCollar
      {
        OFFSET -2.68224 19.2634 -4.8768
        CHANNELS 3 Zrotation Xrotation Yrotation
        JOINT rShldr
        {
          OFFSET -8.77824 -1.95073 1.46304
          CHANNELS 3 Zrotation Xrotation Yrotation
          JOINT rForeArm
          {
            OFFSET -28.1742 -1.7115 0.48768
            CHANNELS 3 Zrotation Xrotation Yrotation
            JOINT rHand
            {
              OFFSET -22.5879 0.773209 7.07136
              CHANNELS 3 Zrotation Xrotation Yrotation
              JOINT rThumb1
              {
                OFFSET -1.2192 -0.487915 3.41376
                CHANNELS 3 Zrotation Xrotation Yrotation
                JOINT rThumb2
                {
                  OFFSET -3.37035 -0.52449 3.41376
                  CHANNELS 3 Zrotation Xrotation Yrotation
                  End Site
                  {
                    OFFSET -1.78271 -1.18214 1.43049
                  }
                }
              }
              JOINT rIndex1
              {
                OFFSET -7.75947 0.938293 5.60832
                CHANNELS 3 Zrotation Xrotation Yrotation
                JOINT rIndex2
                {
                  OFFSET -2.54057 -0.884171 1.56538
                  CHANNELS 3 Zrotation Xrotation Yrotation
                  End Site
                  {
                    OFFSET -1.62519 -0.234802 1.16502
                  }
                }
              }
              JOINT rMid1
              {
                OFFSET -8.24714 1.18213 3.41376
                CHANNELS 3 Zrotation Xrotation Yrotation
                JOINT rMid2
                {
                  OFFSET -3.10165 -0.590103 1.0647
                  CHANNELS 3 Zrotation Xrotation Yrotation
                  End Site
                  {
                    OFFSET -2.48547 -0.328903 0.83742
                  }
                }
              }
              JOINT rRing1
              {
                OFFSET -8.82822 0.546677 1.51678
                CHANNELS 3 Zrotation Xrotation Yrotation
                JOINT rRing2
                {
                  OFFSET -2.60934 -0.819778 -0.0198488
                  CHANNELS 3 Zrotation Xrotation Yrotation
                  End Site
                  {
                    OFFSET -2.33842 -0.294052 0.168128
                  }
                }
              }
              JOINT rPinky1
              {
                OFFSET -8.27202 -0.0477905 -0.4584
                CHANNELS 3 Zrotation Xrotation Yrotation
                JOINT rPinky2
                {
                  OFFSET -1.82734 -0.647385 -0.700984
                  CHANNELS 3 Zrotation Xrotation Yrotation
                  End Site
                  {
                    OFFSET -1.69225 -0.51767 -0.607171
                  }
                }
              }
            }
          }
        }
      }
      JOINT lCollar
      {
        OFFSET 2.68224 19.2634 -4.8768
        CHANNELS 3 Zrotation Xrotation Yrotation
        JOINT lShldr
        {
          OFFSET 8.77824 -1.95073 1.46304
          CHANNELS 3 Zrotation Xrotation Yrotation
          JOINT lForeArm
          {
            OFFSET 28.1742 -1.7115 0.48768
            CHANNELS 3 Zrotation Xrotation Yrotation
            JOINT lHand
            {
              OFFSET 22.5879 0.773209 7.07136
              CHANNELS 3 Zrotation Xrotation Yrotation
              JOINT lThumb1
              {
                OFFSET 1.2192 -0.487915 3.41376
                CHANNELS 3 Zrotation Xrotation Yrotation
                JOINT lThumb2
                {
                  OFFSET 3.37035 -0.52449 3.41376
                  CHANNELS 3 Zrotation Xrotation Yrotation
                  End Site
                  {
                    OFFSET 1.78271 -1.18214 1.43049
                  }
                }
              }
              JOINT lIndex1
              {
                OFFSET 7.75947 0.938293 5.60832
                CHANNELS 3 Zrotation Xrotation Yrotation
                JOINT lIndex2
                {
                  OFFSET 2.54057 -0.884171 1.56538
                  CHANNELS 3 Zrotation Xrotation Yrotation
                  End Site
                  {
                    OFFSET 1.62519 -0.234802 1.16502
                  }
                }
              }
              JOINT lMid1
              {
                OFFSET 8.24714 1.18213 3.41376
                CHANNELS 3 Zrotation Xrotation Yrotation
                JOINT lMid2
                {
                  OFFSET 3.10165 -0.590103 1.0647
                  CHANNELS 3 Zrotation Xrotation Yrotation
                  End Site
                  {
                    OFFSET 2.48547 -0.328903 0.83742
                  }
                }
              }
              JOINT lRing1
              {
                OFFSET 8.82822 0.546677 1.51678
                CHANNELS 3 Zrotation Xrotation Yrotation
                JOINT lRing2
                {
                  OFFSET 2.60934 -0.819778 -0.0198488
                  CHANNELS 3 Zrotation Xrotation Yrotation
                  End Site
                  {
                    OFFSET 2.33842 -0.294052 0.168128
                  }
                }
              }
              JOINT lPinky1
              {
                OFFSET 8.27202 -0.0477905 -0.4584
                CHANNELS 3 Zrotation Xrotation Yrotation
                JOINT lPinky2
                {
                  OFFSET 1.82734 -0.647385 -0.700984
                  CHANNELS 3 Zrotation Xrotation Yrotation
                  End Site
                  {
                    OFFSET 1.69225 -0.51767 -0.607171
                  }
                }
              }
            }
          }
        }
      }
    }
  }
  JOINT rButtock
  {
    OFFSET -8.77824 4.35084 1.2192
    CHANNELS 3 Zrotation Xrotation Yrotation
    JOINT rThigh
    {
      OFFSET 0 -1.70687 -2.19456
      CHANNELS 3 Zrotation Xrotation Yrotation
      JOINT rShin
      {
        OFFSET 0 -36.8199 0.73152
        CHANNELS 3 Zrotation Xrotation Yrotation
        JOINT rFoot
        {
          OFFSET 0.73152 -45.1104 -5.12064
          CHANNELS 3 Zrotation Xrotation Yrotation
          End Site
          {
            OFFSET -1.1221 -3.69964 12.103
          }
        }
      }
    }
  }
  JOINT lButtock
  {
    OFFSET 8.77824 4.35084 1.2192
    CHANNELS 3 Zrotation Xrotation Yrotation
    JOINT lThigh
    {
      OFFSET 0 -1.70687 -2.19456
      CHANNELS 3 Zrotation Xrotation Yrotation
      JOINT lShin
      {
        OFFSET 0 -36.8199 0.73152
        CHANNELS 3 Zrotation Xrotation Yrotation
        JOINT lFoot
        {
          OFFSET -0.73152 -45.1104 -5.12064
          CHANNELS 3 Zrotation Xrotation Yrotation
          End Site
          {
            OFFSET 1.1221 -3.69964 12.103
          }
        }
      }
    }
  }
}
MOTION
Frames:	4
Frame Time:	0.03333
0.009485358372330666 32.901458740234375 0.1075483188033104 -13.121090233325958 -10.038086101412773 4.680362194776535 -5.83972692489624 15.305989533662796 1.0427271947264671 3.5617127269506454 -3.345203474164009 -0.28642941266298294 -7.00901985168457 13.50117802619934 -5.141895599663258 0.010342597961425781 -17.16004103422165 -13.124908357858658 -2.225651778280735 -7.413583472371101 2.140640504658222 -3.813566118478775 4.943868778645992 2.5981854647397995 1.9744759798049927 -2.0679841563105583 -0.05740094929933548 39.22812223434448 28.364668786525726 21.07620969414711 -13.775504976511002 -24.934922754764557 51.286545395851135 -2.1845579892396927 -4.535021334886551 -4.49655544012785 -1.117584966123104 5.450556501746178 2.8672318160533905 -0.3546500578522682 -0.49719907343387604 3.031722642481327 -2.4494283087551594 -0.9194968733936548 1.6752311401069164 1.453397199511528 6.016816422343254 -1.1928319931030273 3.1879740580916405 4.601978659629822 -0.5697427690029144 -2.6162270084023476 -0.6481102108955383 -6.3201528042554855 -3.490910120308399 1.1220994591712952 0.8767135441303253 1.7610740661621094 -4.820380210876465 2.6168254762887955 -2.8012516535818577 -0.6569782644510269 1.2168505042791367 1.3356408476829529 -1.8626892194151878 4.396517425775528 0.40052195079624653 0.5441072210669518 -0.8440026640892029 -46.82965815067291 33.15178960561752 -23.101399540901184 15.73673352599144 -21.580232977867126 -51.10134959220886 9.326645582914352 -0.10167181491851807 7.867199331521988 -0.35326167941093445 -0.10992631316184998 -2.3019842617213726 -2.123732529580593 -0.8104624785482883 -0.8404715359210968 3.2121913880109787 1.471523568034172 0.14356423169374466 -1.8212112039327621 4.837822616100311 -5.176674462854862 -1.8336397223174572 4.548470601439476 -0.4063660651445389 -7.181235104799271 6.440848857164383 4.300095699727535 -0.9483979269862175 -2.4777522683143616 2.7668488025665283 -9.617561995983124 -1.3092536106705666 4.685681685805321 -7.0601628720760345 -3.1316520273685455 -1.4194421097636223 -0.9229548275470734 -3.245938941836357 -2.193220853805542 2.5588728301227093 1.9983670860528946 2.517003044486046 -32.254486083984375 -31.409378349781036 -37.721697092056274 -9.804063364863396 40.434207022190094 9.810505360364914 4.655236601829529 -1.679038368165493 3.654264360666275 4.269253648817539 1.856880560517311 3.237787038087845 23.571322560310364 -26.747320890426636 6.018371433019638 7.075604349374771 51.878047585487366 -10.597819536924362 -0.9708374552428722 -4.302464425563812 11.740849614143372
0.018487874418497086 63.12940979003906 0.2994629666209221 -17.336500883102417 -12.660326957702637 23.21462094783783 -15.182204246520996 26.6765159368515 -7.285342365503311 -1.962978020310402 -2.6931343227624893 -6.5513089299201965 -7.760934233665466 13.144194781780243 -6.28849670290947 2.73896723985672 -11.957403123378754 -23.66830050945282 -2.19219122081995 -14.66510385274887 4.640038199722767 -13.438839465379715 -0.11943373829126358 4.79918472468853 -6.007064580917358 4.349622018635273 -5.658738166093826 50.53778529167175 30.055114924907684 34.48990076780319 -16.73102840781212 -33.68883490562439 62.17920541763306 -3.510340377688408 -12.892590165138245 -10.47492004930973 -2.100265882909298 2.6593760401010513 6.289778798818588 1.444629393517971 7.401658371090889 1.5208906307816505 -3.2663002610206604 -0.9045274648815393 -1.48692162707448 -3.397785499691963 -1.7499301582574844 0.595659613609314 14.743118584156036 4.676269143819809 -3.6109453439712524 0.6140163168311119 -7.0214492082595825 -2.3718851432204247 -8.655543476343155 -8.817566335201263 -5.1618508994579315 -3.0792054533958435 1.5594148635864258 -3.041796013712883 -10.832327082753181 2.4289099127054214 8.283258900046349 1.4494986087083817 -2.267708145081997 7.203426361083984 -4.156893230974674 -6.040908694267273 -4.821300208568573 -50.340718030929565 39.602437913417816 -29.44933533668518 19.421431571245193 -15.678222477436066 -52.17389523983002 22.45948389172554 -7.730601131916046 21.85014232993126 -2.3485328257083893 -6.458452194929123 -3.2499293982982635 -2.2179048880934715 9.05627153813839 3.4048350155353546 1.999468132853508 -2.85728819668293 2.7689023688435555 -3.590959534049034 -3.8061055541038513 -4.743098057806492 0.370862502604723 8.222282901406288 -0.6283832341432571 -11.385710388422012 6.595268994569778 10.600503087043762 -8.23318675160408 9.898885488510132 1.2926584482192993 0.2238970622420311 1.1242448911070824 2.697500791400671 -3.0374015495181084 -9.367774575948715 -0.3451718855649233 -8.91573116183281 -11.22168593108654 -2.5310128927230835 -1.6756324656307697 1.3360116630792618 5.104786232113838 -46.39797270298004 -39.76931154727936 -33.59135001897812 -14.192984104156494 52.30765700340271 16.98800951242447 7.014869749546051 6.683364808559418 4.475824981927872 6.741209998726845 -3.33550862967968 4.369952827692032 24.826177954673767 -18.413439989089966 -4.103022404015064 6.381928771734238 45.493773221969604 -12.943806946277618 4.4501374661922455 -5.021666586399078 10.031296089291573
-0.009598726406693459 56.677738189697266 0.2557777464389801 -12.57809042930603 -7.785035893321037 -20.95438912510872 -12.055939435958862 19.560402184724808 -2.6606350019574165 0.6571754068136215 -4.13544125854969 -1.778956688940525 -6.73311173915863 16.604625284671783 -2.0172401145100594 0.6064501404762268 -18.680268824100494 -11.037554293870926 4.1558196768164635 -12.628414034843445 5.416366048157215 -13.202408105134964 7.7801066637039185 2.662912532687187 0.3510206937789917 0.3694022074341774 -0.4546736553311348 60.82183599472046 37.80694305896759 28.648387491703033 -13.023781031370163 -33.161834478378296 67.30996012687683 0.33916063606739044 -14.179382622241974 -10.596252456307411 -4.578090570867062 5.883973315358162 7.235332578420639 -4.562475420534611 3.802010491490364 5.716305077075958 -1.4349417574703693 2.3722629994153976 2.1977039985358715 0.7487218827009201 4.170606359839439 -1.1400729417800903 5.5046891793608665 4.842643886804581 -3.266512155532837 -3.054070807993412 -6.714266538619995 -6.714193448424339 -6.025862842798233 -3.7245744466781616 -0.5619750916957855 -1.7421242594718933 -1.1479532718658447 6.186719611287117 -0.5316951312124729 -2.984841987490654 6.591063961386681 -2.3077478259801865 -1.1023956164717674 5.390947759151459 -0.03327573649585247 -0.9714427962899208 -0.6343558430671692 -53.86768877506256 37.65631288290024 -29.72601056098938 16.251757889986038 -19.036868512630463 -58.37565064430237 18.443052917718887 2.7426740527153015 16.0581211745739 -2.9750163853168488 -2.8830890357494354 -2.8473083674907684 -3.319048248231411 2.241035755723715 0.8046962320804596 7.555165216326714 1.1239468306303024 -1.4287574216723442 1.5082872658967972 -3.2955148816108704 -8.691749274730682 0.5637294240295887 10.258637443184853 -3.8005567342042923 -14.069255143404007 6.259874850511551 7.031638920307159 -1.2538693472743034 4.202753305435181 0.17779827117919922 -6.190197765827179 -3.0916110053658485 7.629069462418556 -8.90882983803749 -7.52893254160881 3.495020605623722 -3.197256177663803 -11.534534096717834 -3.342987298965454 3.384258449077606 2.2471580654382706 5.160967782139778 -57.405667304992676 -37.017448246479034 -46.446102261543274 -30.450711250305176 58.25144290924072 28.109217882156372 9.473178684711456 1.468493677675724 6.757955700159073 8.481695428490639 1.5924067050218582 0.8432663977146149 45.33028721809387 -28.239141404628754 27.197261452674866 20.48273876309395 65.52713871002197 -27.91599154472351 -3.892015367746353 -3.370659649372101 15.474151968955994
-0.037047311663627625 57.00045394897461 0.2075827792286873 -13.391564190387726 -7.407241389155388 -20.145295411348343 -12.57708728313446 20.469799786806107 -3.1103046610951424 0.27994953095912933 -4.228428080677986 -2.5989509001374245 -6.70890212059021 16.096148192882538 -2.2120006754994392 1.2107571959495544 -18.167140781879425 -12.102777510881424 3.3232056722044945 -12.949729263782501 5.643125027418137 -13.541417866945267 6.571878790855408 3.009765073657036 -0.5607104301452637 0.9435102716088295 -1.1658667400479317 61.155486702919006 37.469405829906464 28.666846454143524 -13.699700385332108 -33.93305003643036 67.71192669868469 -0.25673501193523407 -15.04266232252121 -11.098935976624489 -4.170931242406368 5.533282533288002 7.284848839044571 -3.568856455385685 4.500009790062904 5.128381289541721 -1.5222959406673908 1.805807277560234 1.5915247611701488 0.19578449428081512 3.199228271842003 -0.6146818399429321 6.795647442340851 4.84116330742836 -3.618321418762207 -2.4222711101174355 -6.93487823009491 -6.105825528502464 -6.7295242846012115 -4.717104434967041 -1.6266243159770966 -1.9294175505638123 -0.290987491607666 4.762718752026558 -2.005311492830515 -2.3356320708990097 7.208626493811607 -1.8874483555555344 -1.1156564578413963 5.63760370016098 -0.6836390029639006 -1.830071546137333 -1.2643209099769592 -54.386658668518066 37.15657442808151 -29.69577670097351 16.74938812851906 -18.6035093665123 -57.37606644630432 19.386868625879288 2.308676540851593 16.73301860690117 -2.8324301540851593 -3.627273291349411 -3.0889351665973663 -3.089880309998989 3.198576159775257 1.2975789606571198 6.746345087885857 0.4551701992750168 -0.8247159048914909 0.901682898402214 -3.805735409259796 -8.290850222110748 0.5678117461502552 10.113189294934273 -3.590003326535225 -13.960647135972977 6.340920478105545 7.785205543041229 -2.3101232573390007 5.209667980670929 0.2928757667541504 -4.971541799604893 -2.263406552374363 6.702449396252632 -7.71259680390358 -8.115284889936447 2.9075470939278603 -4.1771261394023895 -11.730346083641052 -3.308204412460327 2.5263805501163006 2.1694598346948624 5.418500080704689 -57.791197299957275 -37.140913009643555 -45.96221566200256 -30.003855228424072 58.9649373292923 29.45296972990036 9.426202476024628 1.8015167489647865 6.009125858545303 8.269639983773232 0.7419372349977493 1.3318361341953278 46.47737145423889 -27.48470574617386 26.23735249042511 21.57481089234352 64.19599056243896 -29.200463891029358 -2.8896738588809967 -3.678099811077118 14.257963299751282
